<svg width="1rem" height="1rem" viewBox="0 0 24 24" fill="none" xmlns="http://www.w3.org/2000/svg">
<path d="M8.70648 17.1C7.11982 17.1 5.73982 16.8133 4.56648 16.24C3.39315 15.6533 2.49315 14.8267 1.86648 13.76C1.23982 12.6933 0.926484 11.4533 0.926484 10.04C0.926484 8.08 1.29315 6.34 2.02648 4.82C2.77315 3.3 3.77982 2.12667 5.04648 1.3C6.31315 0.459999 7.71982 0.039999 9.26649 0.039999C10.7065 0.039999 11.7998 0.413332 12.5465 1.16C13.2932 1.89333 13.6665 2.86667 13.6665 4.08C13.6665 4.89333 13.5198 5.54667 13.2265 6.04C12.9465 6.53333 12.5398 6.78 12.0065 6.78C11.6332 6.78 11.3398 6.69333 11.1265 6.52C10.9132 6.34667 10.8065 6.09333 10.8065 5.76C10.8065 5.64 10.8332 5.42 10.8865 5.1C10.9665 4.7 11.0065 4.38 11.0065 4.14C11.0065 2.92667 10.3598 2.32 9.06648 2.32C8.18648 2.32 7.34648 2.60667 6.54648 3.18C5.74648 3.75333 5.09982 4.6 4.60648 5.72C4.11315 6.82667 3.86648 8.14667 3.86648 9.68C3.86648 11.28 4.31315 12.52 5.20648 13.4C6.09982 14.2667 7.41982 14.7 9.16648 14.7C10.0332 14.7 10.9065 14.5933 11.7865 14.38C12.6798 14.1533 13.6665 13.8133 14.7465 13.36C14.9465 13.28 15.1132 13.24 15.2465 13.24C15.4598 13.24 15.6198 13.32 15.7265 13.48C15.8332 13.64 15.8865 13.8467 15.8865 14.1C15.8865 14.9133 15.4465 15.5133 14.5665 15.9C13.6198 16.3133 12.6332 16.62 11.6065 16.82C10.5932 17.0067 9.62648 17.1 8.70648 17.1Z" fill="#ACACAC"/>
</svg>
