<svg width="1em" height="1em" viewBox="0 0 24 24" fill="none" xmlns="http://www.w3.org/2000/svg">
<path d="M11.4623 1.21C11.731 1.262 11.9303 1.353 12.0603 1.483C12.199 1.613 12.2683 1.76467 12.2683 1.938C12.2683 2.224 12.186 2.432 12.0213 2.562C11.8653 2.692 11.614 2.744 11.2673 2.718C10.4873 2.65733 9.8763 2.61833 9.4343 2.601C9.00096 2.575 8.42896 2.55767 7.7183 2.549C7.39763 4.14367 7.10296 5.747 6.8343 7.359C6.73896 7.94833 6.6393 8.633 6.5353 9.413C6.4313 10.1843 6.36196 10.8083 6.3273 11.285C6.30996 11.5363 6.20596 11.7313 6.0153 11.87C5.82463 12 5.59496 12.065 5.3263 12.065C5.0403 12.065 4.8193 11.9957 4.6633 11.857C4.5073 11.7183 4.4293 11.5363 4.4293 11.311C4.4293 11.103 4.45963 10.7607 4.5203 10.284C4.58963 9.79867 4.66763 9.29167 4.7543 8.763C4.84963 8.23433 4.9233 7.775 4.9753 7.385C5.07063 6.72633 5.17896 6.072 5.3003 5.422C5.42163 4.772 5.54296 4.15667 5.6643 3.576C5.6903 3.446 5.72063 3.29867 5.7553 3.134C5.78996 2.96067 5.82896 2.77 5.8723 2.562C5.02296 2.588 4.35563 2.65733 3.8703 2.77C3.38496 2.88267 3.0383 3.043 2.8303 3.251C2.63096 3.45033 2.5313 3.71033 2.5313 4.031C2.5313 4.32567 2.61796 4.60733 2.7913 4.876C2.82596 4.93667 2.8433 5.00167 2.8433 5.071C2.8433 5.23567 2.74363 5.39167 2.5443 5.539C2.35363 5.67767 2.1543 5.747 1.9463 5.747C1.79896 5.747 1.67763 5.70367 1.5823 5.617C1.40896 5.46967 1.26596 5.26167 1.1533 4.993C1.04063 4.71567 0.984297 4.40367 0.984297 4.057C0.984297 3.32033 1.22263 2.731 1.6993 2.289C2.18463 1.83833 2.91696 1.509 3.8963 1.301C4.8843 1.093 6.14963 0.988999 7.6923 0.988999C8.64563 0.988999 9.40396 1.00633 9.9673 1.041C10.5393 1.07567 11.0376 1.132 11.4623 1.21Z" fill="#ACACAC"/>
</svg>
