<svg width="24" height="24" viewBox="0 0 24 24" fill="none" xmlns="http://www.w3.org/2000/svg">
<path d="M22 13.4727C22 15.4364 19.5376 14.9455 16.5 14.9455C13.4624 14.9455 11 15.4364 11 13.4727C11 12 13.4624 12 16.5 12C19.5376 12 22 12 22 13.4727Z" fill="#D9D9D9"/>
<path d="M22 7.47273C22 9.43636 20.2091 8.94545 18 8.94545C15.7909 8.94545 14 9.43636 14 7.47273C14 6 15.7909 6 18 6C20.2091 6 22 6 22 7.47273Z" fill="#D9D9D9"/>
<path d="M22 19.5C22 21.5 17.5228 21 12 21C6.47715 21 2 21.5 2 19.5C2 18 6.47715 18 12 18C17.5228 18 22 18 22 19.5Z" fill="#D9D9D9"/>
</svg>
