<svg width="24" height="24" viewBox="0 0 24 24" fill="none" xmlns="http://www.w3.org/2000/svg">
<path d="M13 13.4727C13 15.4364 10.5376 14.9455 7.5 14.9455C4.46243 14.9455 2 15.4364 2 13.4727C2 12 4.46243 12 7.5 12C10.5376 12 13 12 13 13.4727Z" fill="#D9D9D9"/>
<path d="M10 7.47273C10 9.43636 8.20914 8.94545 6 8.94545C3.79086 8.94545 2 9.43636 2 7.47273C2 6 3.79086 6 6 6C8.20914 6 10 6 10 7.47273Z" fill="#D9D9D9"/>
<path d="M22 19.5C22 21.5 17.5228 21 12 21C6.47715 21 2 21.5 2 19.5C2 18 6.47715 18 12 18C17.5228 18 22 18 22 19.5Z" fill="#D9D9D9"/>
</svg>
