<svg width="24" height="24" viewBox="0 0 24 24" fill="none" xmlns="http://www.w3.org/2000/svg">
<path d="M17 13.4727C17 15.4364 14.5376 14.9455 11.5 14.9455C8.46243 14.9455 6 15.4364 6 13.4727C6 12 8.46243 12 11.5 12C14.5376 12 17 12 17 13.4727Z" fill="#D9D9D9"/>
<path d="M20 7.47273C20 9.43636 16.4183 8.94545 12 8.94545C7.58172 8.94545 4 9.43636 4 7.47273C4 6 7.58172 6 12 6C16.4183 6 20 6 20 7.47273Z" fill="#D9D9D9"/>
<path d="M22 19.5C22 21.5 17.5228 21 12 21C6.47715 21 2 21.5 2 19.5C2 18 6.47715 18 12 18C17.5228 18 22 18 22 19.5Z" fill="#D9D9D9"/>
</svg>
